# File created by Blade
# Date/Time:  Thu Sep 25 15:41:58 2014
# Frame Rate: 120.000 fps
#------------------------------------------------------
:FULLY-SPECIFIED
:DEGREES
841
root 23.951994 32.919601 1.415309 16.630401 -66.364318 -9.981230
Spine 4.913219 15.994780 8.550846
Head -21.929136 42.023478 -8.085004
LeftShoulder -12.184515 32.459680 9.748373
LeftArm 40.596686 34.283106 -47.356394
LeftForeArm 2.224864 -0.000000 94.071315
LeftHand -21.225624 0.000000 -19.133464
LeftHandThumb1 -26.253704 0.000000 33.147579
RightShoulder -13.809984 2.947370 -23.993497
RightArm -10.016409 -46.340140 85.139167
RightForeArm -5.433853 0.000000 85.865453
RightHand -0.351018 -0.000000 20.839097
RightHandThumb1 -24.326973 -0.000000 -32.862282
LeftUpLeg -22.060378 5.744429 3.622580
LeftLeg 33.380235 -0.000000 -0.000000
LeftFoot -23.682900 11.758762 -29.347502
LeftToeBase -2.910130 -0.000000 0.000000
RightUpLeg -6.352209 -17.842061 10.235665
RightLeg 8.237374 -0.000000 -0.000000
RightFoot -13.224357 -17.004625 -0.816659
RightToeBase 0.107171 -0.000000 -0.000000
842
root 23.980796 32.922093 1.480506 16.291137 -65.978153 -9.709094
Spine 4.802554 16.030505 8.524146
Head -21.788973 41.670249 -7.923408
LeftShoulder -12.333139 32.657154 9.604424
LeftArm 40.673849 34.261478 -47.246523
LeftForeArm 2.719992 -0.000000 94.497327
LeftHand -21.343174 -0.000000 -19.712136
LeftHandThumb1 -26.253704 0.000000 33.147579
RightShoulder -13.839868 2.853998 -24.160040
RightArm -10.206514 -46.446951 85.092743
RightForeArm -4.768452 0.000000 86.874623
RightHand -0.399651 -0.000000 21.448897
RightHandThumb1 -24.326973 -0.000000 -32.862282
LeftUpLeg -21.336343 5.873883 3.581358
LeftLeg 32.450303 -0.000000 -0.000000
LeftFoot -23.503879 11.461106 -29.516249
LeftToeBase -2.727528 -0.000000 0.000000
RightUpLeg -6.240706 -17.616533 10.072398
RightLeg 8.162520 -0.000000 -0.000000
RightFoot -13.209369 -17.599522 -0.601396
RightToeBase 0.412647 -0.000000 -0.000000
843
root 23.990706 32.923246 1.550905 15.921259 -65.631984 -9.486147
Spine 4.745549 16.106213 8.504935
Head -21.657542 41.287327 -7.760666
LeftShoulder -12.429378 32.836455 9.491106
LeftArm 40.644249 34.303716 -47.199556
LeftForeArm 3.197829 -0.000000 94.789163
LeftHand -21.158956 -0.000000 -19.258082
LeftHandThumb1 -26.253704 0.000000 33.147579
RightShoulder -13.875705 2.745568 -24.299979
RightArm -10.416596 -46.565070 85.071090
RightForeArm -4.222468 -0.000000 87.829612
RightHand -0.468485 -0.000000 21.940903
RightHandThumb1 -24.326973 -0.000000 -32.862282
LeftUpLeg -20.458136 6.050334 3.562456
LeftLeg 31.394740 -0.000000 -0.000000
LeftFoot -23.227298 10.824922 -29.891989
LeftToeBase -2.851017 -0.000000 0.000000
RightUpLeg -6.037895 -17.557474 9.894754
RightLeg 8.113746 -0.000000 -0.000000
RightFoot -13.148897 -18.137721 -0.528383
RightToeBase 0.154339 -0.000000 -0.000000
844
root 24.008699 32.922459 1.623035 15.533767 -65.236866 -9.215068
Spine 4.690808 16.145098 8.481645
Head -21.595341 40.939485 -7.647202
LeftShoulder -12.556260 33.016366 9.335162
LeftArm 40.667155 34.276189 -47.141368
LeftForeArm 3.572393 0.000000 95.110428
LeftHand -21.356985 0.000000 -20.176395
LeftHandThumb1 -26.253704 0.000000 33.147579
RightShoulder -13.970439 2.561976 -24.430312
RightArm -10.432652 -46.717007 84.909937
RightForeArm -3.755019 -0.000000 88.734108
RightHand -0.399381 -0.000000 22.399816
RightHandThumb1 -24.326973 -0.000000 -32.862282
LeftUpLeg -19.627906 6.091502 3.523732
LeftLeg 30.297753 -0.000000 -0.000000
LeftFoot -22.853441 10.143893 -30.241848
LeftToeBase -2.964752 -0.000000 0.000000
RightUpLeg -6.062204 -17.843954 9.731843
RightLeg 8.441007 -0.000000 -0.000000
RightFoot -13.471101 -18.343496 -0.239739
RightToeBase 0.504079 -0.000000 -0.000000
845
root 24.029637 32.920865 1.698322 15.206150 -64.846070 -9.003872
Spine 4.641511 16.146314 8.500133
Head -21.550575 40.695648 -7.610284
LeftShoulder -12.692404 33.188463 9.168169
LeftArm 40.663718 34.293668 -47.150642
LeftForeArm 3.927052 -0.000000 95.313219
LeftHand -21.436330 -0.000000 -20.162749
LeftHandThumb1 -26.253704 0.000000 33.147579
RightShoulder -14.003412 2.428279 -24.584992
RightArm -10.504918 -46.835519 84.780972
RightForeArm -3.316592 -0.000000 89.620255
RightHand -0.495523 -0.000000 22.989449
RightHandThumb1 -24.326973 -0.000000 -32.862282
LeftUpLeg -18.815046 6.111491 3.482323
LeftLeg 29.154430 -0.000000 -0.000000
LeftFoot -22.578194 9.350283 -30.497730
LeftToeBase -3.008792 -0.000000 0.000000
RightUpLeg -6.049264 -17.913989 9.571348
RightLeg 8.723025 -0.000000 -0.000000
RightFoot -13.428464 -18.739302 -0.393761
RightToeBase 0.236401 -0.000000 -0.000000
846
root 24.052877 32.918840 1.774532 14.890280 -64.455635 -8.765396
Spine 4.539626 16.149618 8.471842
Head -21.454069 40.380636 -7.451023
LeftShoulder -12.784845 33.340226 9.035480
LeftArm 40.579400 34.269870 -47.251455
LeftForeArm 4.318585 -0.000000 95.513744
LeftHand -21.473120 -0.000000 -20.611669
LeftHandThumb1 -26.253704 0.000000 33.147579
RightShoulder -13.998093 2.335178 -24.735284
RightArm -10.665215 -46.953931 84.726290
RightForeArm -3.009621 -0.000000 90.445663
RightHand -0.466793 -0.000000 23.513317
RightHandThumb1 -24.326973 -0.000000 -32.862282
LeftUpLeg -18.029077 6.093385 3.402194
LeftLeg 27.893870 -0.000000 -0.000000
LeftFoot -22.338042 8.752760 -29.790080
LeftToeBase -2.322392 -0.000000 0.000000
RightUpLeg -6.069370 -17.938440 9.405106
RightLeg 8.964788 -0.000000 -0.000000
RightFoot -13.556808 -19.112664 -0.223218
RightToeBase 0.292003 -0.000000 -0.000000
847
root 24.084176 32.915535 1.847840 14.631305 -64.104070 -8.548344
Spine 4.450772 16.159671 8.440379
Head -21.439530 40.089761 -7.340120
LeftShoulder -12.950383 33.453026 8.842100
LeftArm 40.501478 34.234164 -47.321183
LeftForeArm 4.687700 -0.000000 95.710933
LeftHand -21.671370 -0.000000 -20.764238
LeftHandThumb1 -26.253704 0.000000 33.147579
RightShoulder -14.002807 2.271254 -24.870506
RightArm -10.795406 -47.047359 84.650539
RightForeArm -2.742482 -0.000000 91.236728
RightHand -0.492625 0.000000 23.961212
RightHandThumb1 -24.326973 -0.000000 -32.862282
LeftUpLeg -17.316140 6.134522 3.282190
LeftLeg 26.571917 -0.000000 -0.000000
LeftFoot -21.974982 8.135094 -28.717445
LeftToeBase -1.710696 -0.000000 0.000000
RightUpLeg -6.205021 -17.842537 9.247660
RightLeg 9.349789 -0.000000 -0.000000
RightFoot -13.721605 -19.623727 -0.082144
RightToeBase 0.404716 -0.000000 -0.000000
848
root 24.114825 32.911496 1.927477 14.264529 -63.775720 -8.211391
Spine 4.345004 16.190633 8.328008
Head -21.404789 39.784111 -7.193075
LeftShoulder -12.976205 33.485521 8.762127
LeftArm 40.206190 34.209712 -47.635689
LeftForeArm 5.062029 -0.000000 95.886997
LeftHand -21.722511 -0.000000 -21.175657
LeftHandThumb1 -26.253704 0.000000 33.147579
RightShoulder -14.038365 2.191888 -25.019270
RightArm -10.894604 -47.185817 84.586186
RightForeArm -2.475700 -0.000000 91.930585
RightHand -0.532031 0.000000 24.268651
RightHandThumb1 -24.326973 -0.000000 -32.862282
LeftUpLeg -16.602197 6.286044 3.054892
LeftLeg 25.155033 -0.000000 -0.000000
LeftFoot -21.594852 7.583035 -27.664782
LeftToeBase -0.838463 -0.000000 0.000000
RightUpLeg -6.381987 -17.712472 9.024702
RightLeg 9.844871 -0.000000 -0.000000
RightFoot -13.913541 -20.180256 0.017529
RightToeBase 0.488079 -0.000000 -0.000000
849
root 24.151882 32.906102 2.008486 13.942370 -63.425663 -7.889596
Spine 4.234697 16.183927 8.217410
Head -21.355445 39.474020 -6.947865
LeftShoulder -13.099550 33.550574 8.622695
LeftArm 40.011396 34.169747 -47.870063
LeftForeArm 5.221018 -0.000000 96.027687
LeftHand -21.993920 -0.000000 -21.303466
LeftHandThumb1 -26.253704 0.000000 33.147579
RightShoulder -14.070855 2.086061 -25.135800
RightArm -10.904875 -47.321498 84.433150
RightForeArm -2.246988 -0.000000 92.598593
RightHand -0.590685 -0.000000 24.574845
RightHandThumb1 -24.326973 -0.000000 -32.862282
LeftUpLeg -15.988865 6.269182 2.823186
LeftLeg 23.799184 -0.000000 -0.000000
LeftFoot -21.198510 7.373359 -26.756505
LeftToeBase -0.012510 -0.000000 0.000000
RightUpLeg -6.630210 -17.562494 8.810029
RightLeg 10.410260 -0.000000 -0.000000
RightFoot -14.102455 -20.743244 0.125673
RightToeBase 0.571363 -0.000000 -0.000000
850
root 24.187002 32.899189 2.096137 13.451788 -63.007677 -7.405571
Spine 4.154078 16.098399 8.022815
Head -21.522343 39.218761 -6.900019
LeftShoulder -13.256076 33.694491 8.461556
LeftArm 39.945679 34.052989 -48.005360
LeftForeArm 5.192324 -0.000000 96.145668
LeftHand -21.863526 -0.000000 -21.732417
LeftHandThumb1 -26.253704 0.000000 33.147579
RightShoulder -14.160875 1.993576 -25.217760
RightArm -10.880391 -47.553917 84.273289
RightForeArm -2.289448 0.000000 93.233999
RightHand -0.670949 -0.000000 24.701061
RightHandThumb1 -24.326973 -0.000000 -32.862282
LeftUpLeg -15.388861 6.166564 2.523643
LeftLeg 22.525901 -0.000000 -0.000000
LeftFoot -20.849018 7.254215 -26.290032
LeftToeBase 0.551003 -0.000000 -0.000000
RightUpLeg -7.075959 -17.933129 8.542900
RightLeg 11.419845 -0.000000 -0.000000
RightFoot -14.353109 -21.047776 0.019276
RightToeBase 0.319964 -0.000000 -0.000000
851
root 24.236046 32.893561 2.179727 13.001813 -62.641821 -6.922972
Spine 4.067646 16.044873 7.805035
Head -21.588178 38.923210 -6.731050
LeftShoulder -13.290963 33.700665 8.407343
LeftArm 39.670783 33.986300 -48.379152
LeftForeArm 5.259328 0.000000 96.240157
LeftHand -21.882694 0.000000 -21.782700
LeftHandThumb1 -26.253704 0.000000 33.147579
RightShoulder -14.166994 1.947405 -25.314986
RightArm -10.911904 -47.638968 84.163660
RightForeArm -2.157744 -0.000000 93.813985
RightHand -0.755489 0.000000 25.080975
RightHandThumb1 -24.326973 -0.000000 -32.862282
LeftUpLeg -14.950480 6.114630 2.185803
LeftLeg 21.526739 -0.000000 -0.000000
LeftFoot -20.538102 7.085540 -26.030792
LeftToeBase 0.682664 -0.000000 -0.000000
RightUpLeg -7.558458 -17.914284 8.259206
RightLeg 12.431745 -0.000000 -0.000000
RightFoot -14.829427 -21.456924 0.347334
RightToeBase 0.634658 -0.000000 -0.000000
852
root 24.285622 32.888021 2.263203 12.449761 -62.323974 -6.313389
Spine 3.999346 16.026249 7.447895
Head -21.743150 38.665261 -6.517344
LeftShoulder -13.381490 33.767936 8.356134
LeftArm 39.529958 33.855548 -48.626665
LeftForeArm 5.281129 0.000000 96.333313
LeftHand -21.842473 -0.000000 -22.006934
LeftHandThumb1 -26.253704 0.000000 33.147579
RightShoulder -14.226329 1.886694 -25.317248
RightArm -10.840641 -47.759065 83.972421
RightForeArm -2.186671 -0.000000 94.343091
RightHand -0.823891 -0.000000 24.740234
RightHandThumb1 -24.326973 -0.000000 -32.862282
LeftUpLeg -14.592589 6.015079 1.781445
LeftLeg 20.728631 -0.000000 -0.000000
LeftFoot -20.372330 6.970793 -25.924672
LeftToeBase 0.707970 -0.000000 -0.000000
RightUpLeg -8.065056 -17.648766 7.892741
RightLeg 13.465425 -0.000000 -0.000000
RightFoot -15.206055 -22.167719 0.589713
RightToeBase 0.802219 -0.000000 -0.000000
